<svg width="911" height="911" viewBox="0 0 911 911" fill="none" xmlns="http://www.w3.org/2000/svg">
<path d="M370.127 62.2739C382.671 71.1017 387.616 78.3519 393.889 91.936C403.553 108.213 414.647 115.369 432.745 121.598C461.606 128.1 487.381 127.888 513.255 113.123C524.507 102.166 531.39 91.52 539.252 78.1643C549.036 66.5113 549.036 66.5113 563.363 63.0849C605.573 61.069 657.124 84.8039 690.486 108.886C699.251 127.002 693.668 140.054 689.525 159.139C686.669 179.861 690.941 196.4 701.109 214.822C715.093 231.334 732.999 240.515 754.782 244.484C773.023 243.963 791.278 242.782 808.699 237.416C817.4 236.009 817.4 236.009 826.485 238.31C857.363 259.96 878.953 324.532 884.491 358.895C881.173 372.337 878.728 378.091 866.495 385.743C863.024 387.196 859.553 388.649 855.977 390.146C839.642 398.245 828.293 405.361 820.038 421.794C812.652 447.376 812.788 472.719 824.948 496.612C838.728 510.726 853.023 521.425 870.234 531.571C880.018 541.105 880.018 541.105 881.521 556.366C880.903 576.626 874.204 593.137 865.761 611.552C864.455 614.622 863.15 617.692 861.804 620.855C852.809 641.087 843.005 657.048 826.345 672.466C816.771 674.022 816.771 674.022 807.336 671.936C803.86 671.341 800.383 670.745 796.801 670.132C793.267 669.504 789.732 668.875 786.091 668.228C756.809 665.449 734.292 668.554 710.055 685.178C690.492 705.137 687.461 726.547 687.691 752.977C688.993 758.669 690.472 764.328 692.164 769.927C694.679 784.493 694.679 784.493 692.164 799.589C671.017 816.701 645.991 825.284 620.32 834.813C617.314 835.944 614.307 837.075 611.209 838.24C591.48 845.181 574.848 848.117 553.509 846.201C544.284 837.461 544.284 837.461 535.618 825.014C518.471 803.867 506.085 789.578 477.018 785.585C453.657 781.958 440.518 777.235 426.194 759.052C388.314 702.162 360.739 643.447 360.343 575.004C360.28 570.023 360.216 565.041 360.151 559.909C361.193 545.189 364.546 533.628 370.127 519.918C386.363 519.918 402.599 519.918 419.327 519.918C421.357 524.725 423.386 529.531 425.477 534.484C430.826 549.78 430.826 549.78 441.691 553.817C450.586 554.137 459.483 554.437 468.382 554.616C522.571 555.928 564.258 568.081 607.182 600.429C623.27 586.846 623.27 586.846 633.774 569.36C634.14 552.416 625.733 546.903 613.611 534.749C586.826 506.796 565.239 476.299 543.549 444.695C520.635 408.568 520.635 408.568 486.418 383.26C464.801 371.285 458.289 355.343 450.636 333.47C449.16 329.275 447.684 325.08 446.164 320.758C444.278 323.768 442.393 326.777 440.45 329.878C438 333.773 435.55 337.668 433.025 341.68C430.586 345.564 428.147 349.448 425.634 353.449C419.327 363.132 419.327 363.132 414.855 367.37C407.858 368.131 400.831 368.641 393.801 369.042C303.4 374.853 238.933 394.144 167.631 448.494C155.366 456.401 147.818 459.884 133.073 460.593C118.008 449.802 110.277 439.146 103.161 422.986C91.9728 399.71 70.2332 389.027 48.0909 375.845C43.6181 371.607 43.6181 371.607 42.1331 359.358C42.4962 336.526 53.2242 316.901 62.9068 296.393C64.7143 292.389 66.5218 288.385 68.3841 284.26C84.1829 250.041 84.1829 250.041 97.2909 240.246C111.338 239.182 124.274 239.529 138.174 241.835C166.868 246.398 183.687 240.012 209.109 227.534C213.537 226.136 217.438 222.755 222 221.314C227.295 211.245 227.823 213.227 231.473 202.109C232.949 197.914 234.425 193.719 235.945 189.397C236.365 183.582 236.527 177.747 236.505 171.918C236.499 168.569 236.493 165.221 236.487 161.771C235.787 148.18 233.259 135.079 230.267 121.78C231.473 113.123 231.473 113.123 239.824 104.665C258.445 93.3808 277.761 85.8115 298.284 78.1643C304.195 75.8537 304.195 75.8537 310.226 73.4965C330.602 65.8035 347.808 59.4413 370.127 62.2739Z" fill="#14171C"/>
<path d="M97.2909 545.343C102.652 556.032 107.239 566.33 111.548 577.388C112.767 580.401 113.987 583.413 115.243 586.517C118.25 593.963 121.194 601.432 124.127 608.904C131.098 608.995 131.098 608.995 138.209 609.086C186.01 610.359 221.585 616.604 257.75 648.63C286.184 677.792 294.879 704.254 294.37 743.443C294.35 746.398 294.33 749.353 294.309 752.398C294.257 759.654 294.177 766.909 294.091 774.165C296.956 774.935 299.822 775.705 302.774 776.499C326.044 782.905 348.083 790.055 370.127 799.589C367.175 813.573 364.223 827.556 361.182 841.964C339.892 847.006 328.19 842.38 308.627 835.078C305.436 833.916 302.244 832.754 298.956 831.557C275.038 822.604 249.966 812.872 231.473 795.352C232.533 787.316 233.603 779.28 234.722 771.251C238.636 739.895 237.743 716.011 218.055 689.416C199.024 672.266 184.677 667.63 158.791 667.699C154.421 667.704 150.05 667.71 145.547 667.715C132.161 667.945 132.161 667.945 115.741 671.672C101.764 672.466 101.764 672.466 90.0227 665.05C67.3064 639.565 50.3092 599.195 43.6182 566.53C45.54 556.979 45.54 556.979 48.0909 549.58C82.1954 540.576 82.1954 540.576 97.2909 545.343Z" fill="#14171C"/>
</svg>
